<svg width="457" height="100" viewBox="0 0 457 100" fill="none" xmlns="http://www.w3.org/2000/svg">
<path d="M429.737 85C426.223 85 423.172 84.4143 420.583 83.243C417.994 82.0717 415.99 80.4073 414.572 78.2496C413.154 76.0303 412.445 73.472 412.445 70.5746C412.445 67.8005 413.062 65.3346 414.295 63.177C415.528 60.9577 417.439 59.1083 420.028 57.6288C422.617 56.1492 425.884 55.1012 429.83 54.4848L446.289 51.8031V61.0502L432.141 63.4544C429.737 63.8859 427.95 64.6565 426.778 65.7661C425.607 66.8758 425.021 68.3245 425.021 70.1122C425.021 71.8384 425.669 73.2254 426.963 74.2734C428.319 75.2598 429.984 75.7529 431.957 75.7529C434.484 75.7529 436.703 75.2289 438.614 74.1809C440.587 73.0713 442.097 71.5609 443.145 69.6499C444.255 67.7388 444.81 65.6428 444.81 63.3619V50.4161C444.81 48.2584 443.947 46.4707 442.221 45.0528C440.556 43.5733 438.337 42.8335 435.563 42.8335C432.974 42.8335 430.662 43.5424 428.628 44.9603C426.655 46.3166 425.206 48.1351 424.282 50.4161L414.387 45.6076C415.374 42.9568 416.915 40.6759 419.011 38.7648C421.168 36.7921 423.696 35.2509 426.593 34.1413C429.491 33.0317 432.635 32.4768 436.025 32.4768C440.156 32.4768 443.793 33.2474 446.937 34.7886C450.081 36.2681 452.516 38.3641 454.242 41.0766C456.03 43.7274 456.924 46.8406 456.924 50.4161V83.8903H445.457V75.2906L448.046 75.1056C446.752 77.2633 445.211 79.0819 443.423 80.5614C441.635 81.9793 439.601 83.0889 437.32 83.8903C435.039 84.6301 432.511 85 429.737 85Z" fill="#191947"/>
<path d="M383.593 83.8903V33.5865H394.966V44.7754L394.042 43.1109C395.213 39.3505 397.032 36.7305 399.497 35.251C402.025 33.7714 405.046 33.0317 408.56 33.0317H411.519V43.7582H407.172C403.72 43.7582 400.946 44.837 398.85 46.9947C396.754 49.0907 395.706 52.0497 395.706 55.8718V83.8903H383.593Z" fill="#191947"/>
<path d="M351.566 85C346.634 85 342.134 83.8595 338.065 81.5786C334.058 79.2976 330.853 76.1845 328.448 72.2391C326.106 68.2937 324.935 63.7934 324.935 58.7384C324.935 53.6834 326.106 49.1831 328.448 45.2377C330.853 41.2923 334.058 38.1792 338.065 35.8982C342.072 33.6173 346.573 32.4768 351.566 32.4768C356.498 32.4768 360.967 33.6173 364.974 35.8982C368.981 38.1792 372.156 41.2923 374.499 45.2377C376.903 49.1215 378.105 53.6217 378.105 58.7384C378.105 63.7934 376.903 68.2937 374.499 72.2391C372.094 76.1845 368.889 79.2976 364.882 81.5786C360.875 83.8595 356.436 85 351.566 85ZM351.566 73.9035C354.278 73.9035 356.652 73.2562 358.686 71.9616C360.782 70.6671 362.416 68.8793 363.587 66.5984C364.82 64.2558 365.437 61.6358 365.437 58.7384C365.437 55.7794 364.82 53.1902 363.587 50.9709C362.416 48.69 360.782 46.9022 358.686 45.6076C356.652 44.2514 354.278 43.5733 351.566 43.5733C348.792 43.5733 346.357 44.2514 344.261 45.6076C342.165 46.9022 340.5 48.69 339.267 50.9709C338.096 53.1902 337.511 55.7794 337.511 58.7384C337.511 61.6358 338.096 64.2558 339.267 66.5984C340.5 68.8793 342.165 70.6671 344.261 71.9616C346.357 73.2562 348.792 73.9035 351.566 73.9035Z" fill="#191947"/>
<path d="M315.853 84.4452C310.182 84.4452 305.774 82.904 302.63 79.8216C299.548 76.6777 298.007 72.2699 298.007 66.5984V44.4055H289.314V33.5865H290.239C292.705 33.5865 294.616 32.9392 295.972 31.6446C297.329 30.35 298.007 28.4698 298.007 26.0039V22.1202H310.12V33.5865H321.679V44.4055H310.12V65.9511C310.12 67.6156 310.398 69.0334 310.953 70.2047C311.569 71.376 312.494 72.2699 313.727 72.8864C315.021 73.5028 316.655 73.8111 318.628 73.8111C319.059 73.8111 319.552 73.7802 320.107 73.7186C320.724 73.657 321.309 73.5953 321.864 73.5337V83.8903C321.001 84.0136 320.015 84.1369 318.905 84.2602C317.795 84.3835 316.778 84.4452 315.853 84.4452Z" fill="#191947"/>
<path d="M241.806 83.8903V33.5865H253.18V43.4808L252.256 41.7239C253.427 38.7032 255.338 36.4222 257.989 34.8811C260.701 33.2782 263.845 32.4768 267.421 32.4768C271.119 32.4768 274.387 33.2782 277.223 34.8811C280.12 36.4839 282.37 38.734 283.973 41.6314C285.576 44.4672 286.377 47.7653 286.377 51.5257V83.8903H274.263V54.3923C274.263 52.173 273.832 50.262 272.969 48.6591C272.106 47.0563 270.904 45.8234 269.363 44.9603C267.883 44.0356 266.126 43.5733 264.092 43.5733C262.119 43.5733 260.362 44.0356 258.821 44.9603C257.28 45.8234 256.078 47.0563 255.215 48.6591C254.352 50.262 253.92 52.173 253.92 54.3923V83.8903H241.806Z" fill="#191947"/>
<path d="M222.207 83.8904V33.5865H234.32V83.8904H222.207ZM222.207 27.9458V15H234.32V27.9458H222.207Z" fill="#191947"/>
<path d="M187.523 85C184.01 85 180.958 84.4143 178.369 83.243C175.78 82.0717 173.776 80.4073 172.358 78.2496C170.94 76.0303 170.231 73.472 170.231 70.5746C170.231 67.8005 170.848 65.3346 172.081 63.177C173.314 60.9577 175.225 59.1083 177.814 57.6288C180.403 56.1492 183.67 55.1012 187.616 54.4848L204.076 51.8031V61.0502L189.928 63.4544C187.523 63.8859 185.736 64.6565 184.564 65.7661C183.393 66.8758 182.807 68.3245 182.807 70.1122C182.807 71.8384 183.455 73.2254 184.749 74.2734C186.106 75.2598 187.77 75.7529 189.743 75.7529C192.27 75.7529 194.489 75.2289 196.401 74.1809C198.373 73.0713 199.884 71.5609 200.932 69.6499C202.041 67.7388 202.596 65.6428 202.596 63.3619V50.4161C202.596 48.2584 201.733 46.4707 200.007 45.0528C198.342 43.5733 196.123 42.8335 193.349 42.8335C190.76 42.8335 188.448 43.5424 186.414 44.9603C184.441 46.3166 182.992 48.1351 182.068 50.4161L172.173 45.6076C173.16 42.9568 174.701 40.6759 176.797 38.7648C178.954 36.7921 181.482 35.2509 184.379 34.1413C187.277 33.0317 190.421 32.4768 193.811 32.4768C197.942 32.4768 201.579 33.2474 204.723 34.7886C207.867 36.2681 210.302 38.3641 212.028 41.0766C213.816 43.7274 214.71 46.8406 214.71 50.4161V83.8903H203.243V75.2906L205.833 75.1056C204.538 77.2633 202.997 79.0819 201.209 80.5614C199.421 81.9793 197.387 83.0889 195.106 83.8903C192.825 84.6301 190.297 85 187.523 85Z" fill="#191947"/>
<path d="M120 83.8904V15H145.707C150.392 15 154.522 15.8631 158.098 17.5892C161.735 19.2536 164.571 21.7195 166.605 24.9868C168.639 28.1924 169.657 32.107 169.657 36.7305C169.657 41.2924 168.609 45.207 166.513 48.4742C164.478 51.6799 161.673 54.1458 158.098 55.8719C154.522 57.598 150.392 58.461 145.707 58.461H132.576V83.8904H120ZM132.576 47.3646H145.892C148.173 47.3646 150.145 46.9331 151.81 46.07C153.474 45.1453 154.769 43.8816 155.694 42.2787C156.618 40.6759 157.081 38.8265 157.081 36.7305C157.081 34.5729 156.618 32.7235 155.694 31.1823C154.769 29.5795 153.474 28.3465 151.81 27.4835C150.145 26.5588 148.173 26.0964 145.892 26.0964H132.576V47.3646Z" fill="#191947"/>
<path d="M60 70C60 86.5685 46.5685 100 30 100V100C13.4315 100 -3.59416e-06 86.5685 -2.14569e-06 70L-1.27146e-06 60L60 60L60 70Z" fill="#CF4BFF"/>
<path d="M70 0C86.5685 7.24234e-07 100 13.4315 100 30C100 46.5685 86.5685 60 70 60H60V30H30V60H0L0.0012207 0H70Z" fill="#6D24FF"/>
</svg>
